<?xml version="1.0" encoding="utf-8"?>
<!-- Generator: Adobe Illustrator 16.0.0, SVG Export Plug-In . SVG Version: 6.00 Build 0)  -->
<!DOCTYPE svg PUBLIC "-//W3C//DTD SVG 1.1//EN" "http://www.w3.org/Graphics/SVG/1.1/DTD/svg11.dtd">
<svg version="1.1" id="Layer_1" xmlns="http://www.w3.org/2000/svg" xmlns:xlink="http://www.w3.org/1999/xlink" x="0px" y="0px"
	 width="151px" height="150px" viewBox="0 0 151 150" enable-background="new 0 0 151 150" xml:space="preserve">
<g>
	<path fill="#1B3744" d="M75.076,29.929c-0.048,0-0.095-0.007-0.141-0.021L24.767,14.646c-0.207-0.063-0.347-0.255-0.343-0.471
		c0.003-0.216,0.149-0.403,0.357-0.46L75.167,0.017c0.09-0.024,0.184-0.022,0.272,0.005l50.033,15.751
		c0.206,0.064,0.344,0.258,0.339,0.474s-0.152,0.401-0.361,0.457l-50.251,13.21C75.158,29.923,75.117,29.929,75.076,29.929
		 M26.658,14.21l48.427,14.731l48.496-12.749L75.284,0.988L26.658,14.21z"/>
	<path fill="#1B3744" d="M75.294,116.757c-0.048,0-0.096-0.007-0.142-0.021l-50.387-15.492c-0.203-0.063-0.342-0.251-0.342-0.463
		V14.184c0-0.153,0.073-0.298,0.196-0.39c0.123-0.091,0.283-0.118,0.429-0.074L75.216,28.98c0.204,0.063,0.343,0.25,0.343,0.462
		l0.219,86.829c0,0.153-0.072,0.299-0.196,0.39C75.498,116.725,75.396,116.757,75.294,116.757 M25.392,100.422l49.417,15.194
		l-0.216-85.813L25.392,14.837V100.422z"/>
	<path fill="#1B3744" d="M125.327,74.336c-0.048,0-0.096-0.007-0.143-0.021L74.933,58.841c-0.203-0.063-0.341-0.25-0.341-0.463
		V29.444c0-0.22,0.148-0.412,0.361-0.469l50.252-13.21c0.146-0.038,0.3-0.007,0.419,0.085s0.188,0.233,0.188,0.384v57.617
		c0,0.154-0.073,0.299-0.196,0.391C125.53,74.304,125.43,74.336,125.327,74.336 M75.56,58.021l49.283,15.176V16.862L75.56,29.817
		V58.021z"/>
	<path fill="#1B3744" d="M75.294,87.675c-0.105,0-0.208-0.034-0.293-0.099c-0.119-0.091-0.19-0.231-0.191-0.382l-0.218-28.813
		c-0.001-0.154,0.071-0.3,0.195-0.393c0.124-0.092,0.284-0.119,0.432-0.074l50.251,15.474c0.207,0.064,0.346,0.257,0.342,0.473
		s-0.15,0.403-0.359,0.459L75.418,87.659C75.377,87.67,75.335,87.675,75.294,87.675 M75.565,59.036l0.208,27.525l47.8-12.743
		L75.565,59.036z"/>
	<path fill="#1B3744" d="M18.089,134.158c0,1.587-0.539,2.803-1.616,3.648c-1.078,0.846-2.605,1.269-4.581,1.269H9.355v6.781H8.209
		v-16.414h4.02C16.136,129.442,18.089,131.015,18.089,134.158 M9.355,138.088h2.256c1.849,0,3.185-0.306,4.008-0.916
		c0.823-0.609,1.235-1.6,1.235-2.969c0-1.266-0.389-2.202-1.167-2.813c-0.778-0.609-1.983-0.915-3.615-0.915H9.355V138.088z"/>
	<path fill="#1B3744" d="M22.805,138.705v7.151H21.66v-16.414h3.907c2.036,0,3.54,0.376,4.513,1.129
		c0.973,0.752,1.459,1.884,1.459,3.396c0,1.101-0.29,2.029-0.87,2.785s-1.461,1.298-2.644,1.628l4.458,7.477h-1.37l-4.232-7.151
		H22.805z M22.805,137.717h3.132c1.385,0,2.459-0.309,3.222-0.926c0.764-0.618,1.146-1.529,1.146-2.734
		c0-1.25-0.375-2.159-1.123-2.728c-0.749-0.569-1.968-0.854-3.66-0.854h-2.717V137.717z"/>
	<path fill="#1B3744" d="M49.121,137.627c0,2.604-0.651,4.665-1.954,6.181c-1.302,1.516-3.099,2.273-5.389,2.273
		c-2.283,0-4.076-0.758-5.378-2.273s-1.954-3.583-1.954-6.203c0-2.612,0.657-4.668,1.971-6.169c1.313-1.5,3.108-2.251,5.383-2.251
		c2.29,0,4.083,0.754,5.377,2.262C48.474,132.955,49.121,135.016,49.121,137.627 M35.693,137.627c0,2.351,0.524,4.168,1.572,5.451
		s2.552,1.925,4.514,1.925c1.976,0,3.486-0.636,4.53-1.908c1.044-1.272,1.566-3.095,1.566-5.468c0-2.365-0.522-4.178-1.566-5.439
		c-1.044-1.261-2.547-1.892-4.507-1.892c-1.954,0-3.46,0.637-4.519,1.909S35.693,135.285,35.693,137.627"/>
	<path fill="#1B3744" d="M50.199,150c-0.688,0-1.253-0.102-1.695-0.304v-0.988c0.583,0.15,1.141,0.225,1.672,0.225
		c1.812,0,2.717-0.987,2.717-2.964v-16.526h1.145v16.414C54.039,148.618,52.759,150,50.199,150"/>
	<polygon fill="#1B3744" points="67.544,145.856 58.574,145.856 58.574,129.442 67.544,129.442 67.544,130.498 59.719,130.498
		59.719,136.707 67.107,136.707 67.107,137.762 59.719,137.762 59.719,144.802 67.544,144.802 	"/>
	<path fill="#1B3744" d="M78.267,130.239c-2.059,0-3.679,0.659-4.861,1.977s-1.774,3.121-1.774,5.411
		c0,2.343,0.558,4.162,1.673,5.457c1.115,1.294,2.709,1.942,4.783,1.942c1.377,0,2.643-0.177,3.795-0.528v1.011
		c-1.085,0.382-2.44,0.572-4.064,0.572c-2.306,0-4.12-0.744-5.445-2.234c-1.325-1.489-1.987-3.57-1.987-6.242
		c0-1.669,0.316-3.14,0.949-4.412c0.632-1.272,1.542-2.255,2.728-2.947c1.186-0.691,2.565-1.038,4.137-1.038
		c1.602,0,3.035,0.3,4.3,0.898l-0.46,1.032C80.841,130.539,79.584,130.239,78.267,130.239"/>
	<polygon fill="#1B3744" points="89.819,145.856 88.663,145.856 88.663,130.521 83.33,130.521 83.33,129.442 95.152,129.442
		95.152,130.521 89.819,130.521 	"/>
	<path fill="#1B3744" d="M97.33,129.442h5.108c2.327,0,4.018,0.331,5.068,0.994c1.052,0.662,1.578,1.716,1.578,3.16
		c0,0.98-0.23,1.785-0.69,2.414s-1.072,1.007-1.836,1.134v0.112c1.04,0.232,1.791,0.666,2.251,1.302
		c0.46,0.637,0.69,1.482,0.69,2.538c0,1.497-0.541,2.664-1.622,3.503c-1.082,0.838-2.551,1.257-4.406,1.257H97.33V129.442z
		 M100.811,135.943h2.021c0.943,0,1.626-0.146,2.049-0.438c0.423-0.291,0.635-0.774,0.635-1.448c0-0.628-0.23-1.079-0.69-1.353
		s-1.188-0.41-2.184-0.41h-1.83V135.943z M100.811,138.705v4.277h2.268c0.958,0,1.666-0.184,2.122-0.55
		c0.457-0.367,0.685-0.929,0.685-1.685c0-1.361-0.973-2.043-2.919-2.043H100.811z"/>
	<path fill="#1B3744" d="M127.677,137.627c0,2.717-0.674,4.806-2.021,6.265c-1.347,1.46-3.277,2.189-5.793,2.189
		c-2.515,0-4.445-0.729-5.793-2.189c-1.347-1.459-2.021-3.555-2.021-6.287c0-2.731,0.675-4.817,2.026-6.259
		c1.351-1.44,3.288-2.161,5.81-2.161c2.522,0,4.452,0.726,5.788,2.178S127.677,134.902,127.677,137.627 M115.697,137.627
		c0,1.834,0.349,3.215,1.044,4.143c0.696,0.929,1.737,1.393,3.121,1.393c2.777,0,4.166-1.845,4.166-5.535
		c0-3.697-1.381-5.546-4.144-5.546c-1.384,0-2.429,0.466-3.132,1.397C116.049,134.41,115.697,135.794,115.697,137.627"/>
	<polygon fill="#1B3744" points="144.349,145.856 140.374,145.856 136.558,139.648 132.74,145.856 129.013,145.856 134.458,137.392
		129.361,129.442 133.2,129.442 136.737,135.348 140.206,129.442 143.956,129.442 138.803,137.582 	"/>
</g>
</svg>
