<?xml version="1.0" standalone="no"?>
<!DOCTYPE svg PUBLIC "-//W3C//DTD SVG 20010904//EN"
 "http://www.w3.org/TR/2001/REC-SVG-20010904/DTD/svg10.dtd">
<svg version="1.0" xmlns="http://www.w3.org/2000/svg"
 width="435.000000pt" height="435.000000pt" viewBox="0 0 435.000000 435.000000"
 preserveAspectRatio="xMidYMid meet">
<metadata>
Created by potrace 1.14, written by Peter Selinger 2001-2017
</metadata>
<g transform="translate(0.000000,435.000000) scale(0.100000,-0.100000)"
fill="#000000" stroke="none">
<path d="M2155 4323 c-32 -8 -84 -51 -101 -84 -41 -80 -4 -192 75 -228 20 -9
36 -20 35 -26 -1 -20 -38 -187 -90 -405 -70 -292 -156 -518 -204 -532 -14 -4
-68 -19 -120 -33 -478 -130 -870 -504 -1029 -980 -22 -66 -43 -136 -46 -155
-3 -19 -12 -73 -20 -120 -16 -99 -13 -372 5 -465 6 -33 14 -73 17 -90 9 -51
71 -231 105 -302 79 -168 174 -300 317 -443 232 -231 546 -386 866 -428 68 -9
370 -8 420 1 22 4 54 10 70 13 273 45 567 199 781 409 91 89 224 250 224 271
0 4 6 15 14 23 38 42 190 391 171 391 -2 0 0 11 5 26 12 30 19 63 37 179 10
63 10 332 1 405 -34 254 -138 509 -287 705 -67 88 -80 103 -151 173 -172 171
-391 306 -605 371 -38 12 -83 26 -100 31 -16 5 -48 12 -70 16 -22 4 -49 8 -60
10 -24 5 -135 17 -152 17 -7 0 -13 7 -14 16 0 9 -2 25 -4 36 -3 24 -14 137
-20 215 -3 30 -8 188 -11 351 l-7 296 35 7 c50 9 112 66 127 116 39 131 -77
246 -214 213z m280 -1554 c57 -13 115 -30 196 -60 53 -19 56 -22 50 -46 -4
-15 -14 -27 -22 -28 -26 -4 -171 -43 -234 -63 l-60 -19 -22 80 c-12 43 -25 97
-28 119 l-7 40 38 -6 c22 -3 62 -11 89 -17z m347 -304 c23 -6 28 -14 35 -53
13 -83 7 -282 -11 -352 -18 -66 -58 -167 -84 -208 -11 -17 -18 -20 -28 -11 -7
6 -37 9 -68 7 -48 -3 -55 -1 -59 17 -3 11 -34 117 -70 235 -36 118 -72 238
-80 267 l-15 51 86 31 c48 16 116 39 152 49 l65 19 25 -23 c14 -12 37 -26 52
-29z m-1076 10 c94 -28 266 -103 262 -115 -2 -4 -41 -36 -88 -71 -114 -85
-242 -215 -329 -332 -58 -78 -76 -96 -103 -101 -64 -12 -117 -82 -119 -158 -5
-116 104 -196 219 -162 54 16 80 38 103 89 24 51 23 89 0 142 l-19 41 26 39
c90 134 240 278 420 402 l32 23 64 -51 c83 -66 225 -216 298 -315 59 -79 59
-79 40 -100 -39 -42 -55 -87 -49 -138 11 -87 80 -151 161 -150 97 2 161 61
171 157 3 31 19 72 44 116 43 75 82 181 101 273 19 92 16 343 -5 375 -6 10 7
24 35 40 23 13 27 11 106 -71 90 -96 153 -184 213 -303 36 -72 86 -207 97
-260 2 -11 7 -31 10 -45 18 -83 22 -151 19 -280 -1 -80 -6 -156 -9 -170 -3
-14 -8 -36 -11 -49 -2 -13 -8 -28 -12 -32 -16 -15 -249 -90 -352 -113 -164
-38 -257 -48 -441 -49 -128 -1 -270 7 -335 19 -199 34 -277 55 -430 112 -357
132 -658 381 -800 663 l-34 66 34 77 c44 103 103 199 173 288 80 101 89 107
108 80 35 -51 128 -72 196 -45 45 18 87 64 95 104 3 16 9 29 13 29 4 0 47 -11
96 -25z m-747 -1053 c50 -52 196 -168 281 -225 254 -167 600 -296 920 -342 25
-4 56 -8 70 -10 164 -23 543 -24 670 0 14 2 41 6 60 9 46 7 228 43 259 52 22
7 23 6 11 -17 -45 -86 -197 -254 -300 -332 -148 -111 -339 -199 -505 -231 -16
-4 -41 -9 -55 -12 -58 -14 -326 -13 -409 2 -397 71 -741 330 -914 686 -36 75
-77 178 -82 208 -1 3 -8 39 -17 80 -19 83 -28 160 -20 160 3 0 17 -13 31 -28z"/>
</g>
</svg>
